<?xml version="1.0" encoding="UTF-8" standalone="no"?>
<!-- Created with Inkscape (http://www.inkscape.org/) -->

<svg
   xmlns:dc="http://purl.org/dc/elements/1.1/"
   xmlns:cc="http://creativecommons.org/ns#"
   xmlns:rdf="http://www.w3.org/1999/02/22-rdf-syntax-ns#"
   xmlns:svg="http://www.w3.org/2000/svg"
   xmlns="http://www.w3.org/2000/svg"
   xmlns:sodipodi="http://sodipodi.sourceforge.net/DTD/sodipodi-0.dtd"
   xmlns:inkscape="http://www.inkscape.org/namespaces/inkscape"
   width="165.58182mm"
   height="139.1916mm"
   viewBox="0 0 165.58182 139.1916"
   version="1.1"
   id="svg3720"
   inkscape:version="0.92.4 (5da689c313, 2019-01-14)"
   sodipodi:docname="icon.svg">
  <defs
     id="defs3714" />
  <sodipodi:namedview
     id="base"
     pagecolor="#ffffff"
     bordercolor="#666666"
     borderopacity="1.0"
     inkscape:pageopacity="0.0"
     inkscape:pageshadow="2"
     inkscape:zoom="3.959798"
     inkscape:cx="313.4347"
     inkscape:cy="359.56559"
     inkscape:document-units="mm"
     inkscape:current-layer="layer1"
     showgrid="false"
     inkscape:window-width="3840"
     inkscape:window-height="2035"
     inkscape:window-x="5459"
     inkscape:window-y="-13"
     inkscape:window-maximized="1" />
  <metadata
     id="metadata3717">
    <rdf:RDF>
      <cc:Work
         rdf:about="">
        <dc:format>image/svg+xml</dc:format>
        <dc:type
           rdf:resource="http://purl.org/dc/dcmitype/StillImage" />
        <dc:title />
      </cc:Work>
    </rdf:RDF>
  </metadata>
  <g
     inkscape:label="Laag 1"
     inkscape:groupmode="layer"
     id="layer1"
     transform="translate(-19.644666,-81.600464)">
    <path
       style="fill:#000000;stroke-width:31.71843719"
       d="M 377.22842,-6.3134534 C 284.68892,33.304723 126.30033,117.92122 -0.21289062,169.45508 c -0.0696756,52.71458 -0.011082,160.35338 0.49804687,196.86914 L 109.20117,442.5293 c 40.24668,28.15914 81.55481,57.35719 123.47656,83.54882 V 350.70117 C 193.38458,325.22141 47.613991,230.28149 5.1835938,202.4043 L 4.5859375,172.73828 C 45.902871,197.47181 155.06471,269.66382 246.92969,325.79102 373.30152,259.8115 498.72149,194.73049 625.5,131.625 562.68969,95.524956 432.59876,27.050466 377.22842,-6.3134534 Z M 626.26562,160.63086 C 512.75356,219.53865 382.79966,286.04112 261.79688,348.17969 v 71.74219 c 86.94686,-46.72067 157.96098,-83.68807 247.66406,-130.20899 l -0.14063,26.30664 c -82.5075,44.43258 -165.01593,88.86621 -247.52343,133.29883 0,25.26327 0.001,50.52579 0.002,75.78906 88.33739,-51.01719 241.662,-133.52134 364.0039,-201.125 0.0149,-54.45135 0.0687,-108.90119 0.46289,-163.35156 z m -56.03539,83.86718 25.00115,-13.38452 -0.75762,34.5976 -25.00114,15.9099 z"
       transform="matrix(0.26458333,0,0,0.26458333,19.644666,81.600464)"
       id="path3735"
       inkscape:connector-curvature="0"
       sodipodi:nodetypes="cccccccccccccccccccccccccc" />
  </g>
</svg>
